<!DOCTYPE svg PUBLIC "-//W3C//DTD SVG 20010904//EN" "http://www.w3.org/TR/2001/REC-SVG-20010904/DTD/svg10.dtd">
<svg version="1.0" xmlns="http://www.w3.org/2000/svg" width="72px" height="71px" viewBox="0 0 720 710" preserveAspectRatio="xMidYMid meet">
<g id="layer101" fill="#ffffff" stroke="none">
 <path d="M218 687 c-96 -41 -162 -109 -198 -203 -27 -74 -27 -184 1 -259 27 -73 104 -156 177 -192 51 -25 67 -28 162 -28 96 0 110 2 163 30 76 38 149 118 177 193 31 82 25 215 -14 290 -36 70 -95 128 -165 160 -46 22 -73 27 -151 30 -82 2 -103 -1 -152 -21z m192 -235 c69 -43 125 -84 125 -92 0 -17 -251 -174 -265 -165 -11 7 -14 317 -3 328 10 11 12 10 143 -71z"/>
 </g>

</svg>